# xmcd CD database file
#
# Track frame offsets:
#	150
#	18424
#	36362
#	49160
#	70365
#	90774
#	106609
#	123374
#	139014
#	158177
#	175263
#	191126
#	207725
#
# Disc length: 2952 seconds
#
# Revision: 0
# Processed by: cddbd v1.5.2PL0 Copyright (c) Steve Scherf et al.
# Submitted via: CDex 1.51
#
DISCID=b20b860d
DTITLE=Sverre Eilertsen - Høstens Farger
DYEAR=2006
DGENRE=Country Rock
TTITLE0=Kun en gyllen ring (med tre små ømme ord)
TTITLE1=Raude roser
TTITLE2=Bonde i fra bygda
TTITLE3=Tre hvite duer
TTITLE4=Høstens farger
TTITLE5=Tårer på ditt kinn
TTITLE6=Lengselens tango
TTITLE7=Riktige venner
TTITLE8=Hvite måke
TTITLE9=På grunn av bagateller
TTITLE10=Tar du med ei helsing
TTITLE11=Gi meg et tegn
TTITLE12=Kånevalsen
EXTD=YEAR: 2006
EXTT0=
EXTT1=
EXTT2=
EXTT3=
EXTT4=
EXTT5=
EXTT6=
EXTT7=
EXTT8=
EXTT9=
EXTT10=
EXTT11=
EXTT12=
PLAYORDER=
